<?xml version="1.0" encoding="UTF-8" standalone="no"?>
<!-- Created with Inkscape (http://www.inkscape.org/) -->

<svg
   xmlns:dc="http://purl.org/dc/elements/1.1/"
   xmlns:cc="http://creativecommons.org/ns#"
   xmlns:rdf="http://www.w3.org/1999/02/22-rdf-syntax-ns#"
   xmlns:svg="http://www.w3.org/2000/svg"
   xmlns="http://www.w3.org/2000/svg"
   xmlns:sodipodi="http://sodipodi.sourceforge.net/DTD/sodipodi-0.dtd"
   xmlns:inkscape="http://www.inkscape.org/namespaces/inkscape"
   width="130"
   height="550"
   viewBox="0 0 34.395833 145.52084"
   version="1.1"
   id="svg8"
   inkscape:version="0.92.5 (2060ec1f9f, 2020-04-08)"
   sodipodi:docname="sinyal_masuk_hijau_3.svg">
  <defs
     id="defs2" />
  <sodipodi:namedview
     id="base"
     pagecolor="#ffffff"
     bordercolor="#666666"
     borderopacity="1.0"
     inkscape:pageopacity="0.0"
     inkscape:pageshadow="2"
     inkscape:zoom="0.98994949"
     inkscape:cx="51.761352"
     inkscape:cy="324.78438"
     inkscape:document-units="mm"
     inkscape:current-layer="layer1"
     showgrid="false"
     inkscape:window-width="1366"
     inkscape:window-height="685"
     inkscape:window-x="0"
     inkscape:window-y="28"
     inkscape:window-maximized="1"
     units="px" />
  <metadata
     id="metadata5">
    <rdf:RDF>
      <cc:Work
         rdf:about="">
        <dc:format>image/svg+xml</dc:format>
        <dc:type
           rdf:resource="http://purl.org/dc/dcmitype/StillImage" />
        <dc:title></dc:title>
      </cc:Work>
    </rdf:RDF>
  </metadata>
  <g
     inkscape:label="Layer 1"
     inkscape:groupmode="layer"
     id="layer1"
     transform="translate(0,-151.47912)">
    <path
       style="fill:#000000;stroke-width:0.92585886"
       d="M 65 2.5605469 L 3.4628906 64.095703 L 53.888672 114.52148 L 53.888672 142.45898 A 76.223579 74.820694 0 0 0 0.23632812 177.08789 L 0 177.08789 L 0 177.4668 L 0 255.32227 L 0 381.91016 L 0 443.63672 L 0 465.14648 L 53.888672 465.14648 L 53.888672 550 L 76.111328 550 L 76.111328 465.14648 L 130 465.14648 L 130 443.63672 L 130 442.70117 L 130 381.91016 L 130 255.26758 L 130 177.41406 L 130 177.08789 L 129.80859 177.08789 A 76.223579 74.820694 0 0 0 76.111328 142.43555 L 76.111328 114.52148 L 126.53711 64.095703 L 65 2.5605469 z "
       transform="matrix(0.26458333,0,0,0.26458333,0,151.47912)"
       id="path12" />
    <circle
       style="fill:#00ff00;stroke-width:0.21030171"
       id="path3726"
       cx="17.197912"
       cy="206.87076"
       r="11.259151" />
    <circle
       r="11.259151"
       cy="259.08353"
       cx="17.197912"
       id="circle3737"
       style="fill:#4d4d4d;stroke-width:0.21030171" />
    <circle
       style="fill:#4d4d4d;stroke-width:0.21030171"
       id="circle3739"
       cx="17.197912"
       cy="232.97714"
       r="11.259151" />
    <text
       xml:space="preserve"
       style="font-style:normal;font-weight:normal;font-size:18.2506485px;line-height:1.25;font-family:sans-serif;letter-spacing:0px;word-spacing:0px;fill:#ffffff;fill-opacity:1;stroke:none;stroke-width:0.45626616"
       x="11.996481"
       y="173.45233"
       id="text4788"><tspan
         sodipodi:role="line"
         id="tspan4786"
         x="11.996481"
         y="173.45233"
         style="font-style:normal;font-variant:normal;font-weight:bold;font-stretch:normal;font-family:sans-serif;-inkscape-font-specification:'sans-serif Bold';fill:#ffffff;stroke-width:0.45626616">3</tspan></text>
  </g>
</svg>
